<svg width="16" height="16" viewBox="0 0 16 16" fill="none" xmlns="http://www.w3.org/2000/svg">
<path d="M15.0725 12.2835L11.685 9.20345C11.5249 9.05791 11.3144 8.98029 11.0982 8.98698C10.8819 8.99366 10.6767 9.08413 10.5258 9.23929L8.53166 11.2901C8.05166 11.1985 7.08666 10.8976 6.09332 9.90679C5.09999 8.91262 4.79916 7.94512 4.70999 7.46845L6.75916 5.47345C6.9145 5.32272 7.0051 5.11747 7.01179 4.90112C7.01848 4.68478 6.94073 4.47432 6.79499 4.31428L3.71582 0.927618C3.57003 0.767082 3.36739 0.669705 3.15095 0.656168C2.93451 0.64263 2.72132 0.714 2.55666 0.855118L0.748324 2.40595C0.60425 2.55055 0.518257 2.74299 0.506657 2.94678C0.494157 3.15512 0.255824 8.09012 4.08249 11.9185C7.42082 15.256 11.6025 15.5001 12.7542 15.5001C12.9225 15.5001 13.0258 15.4951 13.0533 15.4935C13.2571 15.482 13.4494 15.3957 13.5933 15.251L15.1433 13.4418C15.285 13.2776 15.3569 13.0646 15.3437 12.8482C15.3304 12.6318 15.2331 12.4291 15.0725 12.2835Z" fill="white"/>
</svg>
