<svg id="b3261caa-0ea8-46cc-b4d3-c6488c463b42" data-name="Слой 1" xmlns="http://www.w3.org/2000/svg" viewBox="0 0 276.36222 51.03978">
  <title>logo_color</title>
  <g>
    <path d="M.48438,4.849h14.126V9.19516h-.4375a6.29367,6.29367,0,0,0-.72558-2.26757A1.98637,1.98637,0,0,0,12.36621,6.077a10.78679,10.78679,0,0,0-2.52734-.189H6.5791V18.33725a2.50532,2.50532,0,0,0,.39551,1.71827,2.12994,2.12994,0,0,0,1.44629.37207H8.835v.437H.48438v-.437H.93262a1.95007,1.95007,0,0,0,1.418-.39551,2.60266,2.60266,0,0,0,.37793-1.69483V7.28208A2.82455,2.82455,0,0,0,2.415,5.74057Q2.103,5.28574.99219,5.286H.48438Z" style="fill: #a91f23"/>
    <path d="M29.0791,5.286a2.36085,2.36085,0,0,0-1.67773.41309,2.32064,2.32064,0,0,0-.37793,1.53564v11.1377a2.47255,2.47255,0,0,0,.37793,1.65381,2.7157,2.7157,0,0,0,1.73633.40137v.437H21.05957v-.437a4.04535,4.04535,0,0,0,1.36328-.15967,1.04417,1.04417,0,0,0,.57324-.52539,3.30173,3.30173,0,0,0,.17676-1.29932V5.888H19.32324v4.78369q0,3-.14844,4.5708a8.8574,8.8574,0,0,1-.81445,2.98242,5.10755,5.10755,0,0,1-1.71875,2.12012,4.07524,4.07524,0,0,1-2.32617.70849,2.49762,2.49762,0,0,1-1.7959-.6084,1.998,1.998,0,0,1-.63769-1.50586,1.872,1.872,0,0,1,.38964-1.22216,1.36391,1.36391,0,0,1,1.12207-.47852q1.35792,0,1.5,1.689.05861.75585.59083.75586a2.25142,2.25142,0,0,0,1.583-.998,5.5019,5.5019,0,0,0,1.10938-2.7461,35.31416,35.31416,0,0,0,.27246-5.06689V7.849a5.91441,5.91441,0,0,0-.16016-1.71875,1.06561,1.06561,0,0,0-.61426-.626,4.87462,4.87462,0,0,0-1.624-.21827V4.849H29.0791Z" style="fill: #a91f23"/>
    <path d="M39.82617,16.30552H34.169l-.67286,1.55908a3.46509,3.46509,0,0,0-.33105,1.2876,1.06918,1.06918,0,0,0,.54394.99169,4.54572,4.54572,0,0,0,1.57032.2837v.437H29.95313v-.437a2.38168,2.38168,0,0,0,1.417-.71436,9.52123,9.52123,0,0,0,1.37011-2.41553L38.46875,4.51841h.22363L44.46875,17.6522a8.00721,8.00721,0,0,0,1.35742,2.35009,1.85515,1.85515,0,0,0,1.13477.4253v.437h-7.748v-.437h.31836a2.42947,2.42947,0,0,0,1.31152-.25977.63183.63183,0,0,0,.25977-.54346,1.46189,1.46189,0,0,0-.07129-.437q-.02343-.1062-.35449-.88574Zm-.40137-.874L37.03906,9.91587l-2.456,5.51562Z" style="fill: #a91f23"/>
    <path d="M57.99219,12.37241A8.18194,8.18194,0,0,1,61.19336,13.66a3.42367,3.42367,0,0,1,1.32227,2.78711,3.691,3.691,0,0,1-1.45215,2.98828,8.13654,8.13654,0,0,1-5.18555,1.4292h-8.1377v-.437a3.67783,3.67783,0,0,0,1.50586-.20655,1.20762,1.20762,0,0,0,.55567-.53759,4.91857,4.91857,0,0,0,.15918-1.62989V7.66a4.97924,4.97924,0,0,0-.15918-1.63574,1.16822,1.16822,0,0,0-.56153-.5376,3.78067,3.78067,0,0,0-1.5-.20069V4.849H55.417a10.90981,10.90981,0,0,1,3.89844.49024,4.05807,4.05807,0,0,1,1.80664,1.46435,3.62308,3.62308,0,0,1,.66113,2.07276,2.94579,2.94579,0,0,1-.83789,2.061A6.02588,6.02588,0,0,1,57.99219,12.37241Zm-4.29883.60254v5.13769l-.01172.59034a1.14349,1.14349,0,0,0,1.28711,1.28759,3.68191,3.68191,0,0,0,1.74219-.41943,2.87579,2.87579,0,0,0,1.22265-1.21631A3.72093,3.72093,0,0,0,58.3584,16.577a3.92414,3.92414,0,0,0-.51953-2.01367,2.80376,2.80376,0,0,0-1.42969-1.2461A7.75541,7.75541,0,0,0,53.69336,12.975Zm0-.92139a6.08719,6.08719,0,0,0,2.47363-.37793,2.81114,2.81114,0,0,0,1.22266-1.063,3.25982,3.25982,0,0,0,.42578-1.748,3.27469,3.27469,0,0,0-.41992-1.74219,2.65821,2.65821,0,0,0-1.19824-1.0332,6.36969,6.36969,0,0,0-2.50391-.34278Z" style="fill: #a91f23"/>
    <path d="M65.39746,4.849H78.6377v.437a3.10259,3.10259,0,0,0-1.87891.437,2.43716,2.43716,0,0,0-.40137,1.67724V18.10093a4.45825,4.45825,0,0,0,.1543,1.417,1.254,1.254,0,0,0,.67871.65576,3.38173,3.38173,0,0,0,1.44727.25391v5.11425h-.4375a4.93485,4.93485,0,0,0-1.51172-3.37793,5.23846,5.23846,0,0,0-3.75586-1.29931h-4.3584a6.10463,6.10463,0,0,0-3.96289,1.21045,4.906,4.906,0,0,0-1.73047,3.46679h-.43652V20.42759a5.58756,5.58756,0,0,0,4.1748-3.939,26.27178,26.27178,0,0,0,1.25781-8.99414,2.43187,2.43187,0,0,0-.46582-1.77734A3.29166,3.29166,0,0,0,65.39746,5.286ZM72.93262,5.888H68.90527V7.25815a39.89129,39.89129,0,0,1-.38964,5.62207,17.48011,17.48011,0,0,1-1.06348,4.30518,7.95574,7.95574,0,0,1-1.79492,2.63965h5.7041a3.15322,3.15322,0,0,0,1.36426-.15918q.20654-.15968.207-1.03369Z" style="fill: #5f6060"/>
    <path d="M88.42969,4.62436A7.94853,7.94853,0,0,1,97.04,12.7977,8.53957,8.53957,0,0,1,95.25586,18.16a7.92716,7.92716,0,0,1-6.67285,3.0708,8.0996,8.0996,0,0,1-6.68555-2.9292,8.48045,8.48045,0,0,1-1.86523-5.49219A7.98746,7.98746,0,0,1,82.459,6.86264,7.72921,7.72921,0,0,1,88.42969,4.62436Zm.1416.75586a3.60988,3.60988,0,0,0-3.34277,2.24414,11.99643,11.99643,0,0,0-.93262,5.29151q0,4.09863,1.44043,6.05908a3.28436,3.28436,0,0,0,2.81152,1.37012,3.3687,3.3687,0,0,0,2.03125-.59082,4.85337,4.85337,0,0,0,1.61817-2.415,13.42565,13.42565,0,0,0,.57812-4.3291,14.39391,14.39391,0,0,0-.58984-4.75391,4.64025,4.64025,0,0,0-1.50586-2.22607A3.552,3.552,0,0,0,88.57129,5.38022Z" style="fill: #5f6060"/>
    <path d="M114.3418,4.48276V10.034h-.46094a5.90859,5.90859,0,0,0-1.93652-3.331,4.94388,4.94388,0,0,0-3.21289-1.15723,4.74983,4.74983,0,0,0-2.752.8623,5.02941,5.02941,0,0,0-1.83008,2.25586,10.21082,10.21082,0,0,0-.74414,3.96827,13.27408,13.27408,0,0,0,.543,3.91552,5.20486,5.20486,0,0,0,1.70117,2.66944,4.7352,4.7352,0,0,0,3,.90332,5.8596,5.8596,0,0,0,2.76954-.66114,9.58816,9.58816,0,0,0,2.65136-2.27978v1.38184a8.75679,8.75679,0,0,1-2.80468,2.03759,8.52421,8.52421,0,0,1-3.40821.63184,9.78087,9.78087,0,0,1-4.55273-1.02783,7.26219,7.26219,0,0,1-3.07129-2.95264,8.24923,8.24923,0,0,1-1.08008-4.09814,8.49662,8.49662,0,0,1,1.19824-4.34668,8.44983,8.44983,0,0,1,3.23633-3.189,8.76694,8.76694,0,0,1,4.3291-1.13379,9.8199,9.8199,0,0,1,3.56641.73242,5.498,5.498,0,0,0,1.38183.42481.89855.89855,0,0,0,.65625-.27735,1.50817,1.50817,0,0,0,.35938-.87988Z" style="fill: #5f6060"/>
    <path d="M130.9248,4.849V9.18345H130.5a6.85066,6.85066,0,0,0-.83887-2.15528,3.234,3.234,0,0,0-1.26367-1.04541,4.05386,4.05386,0,0,0-1.57129-.2124h-1.19238v12.354a5.03741,5.03741,0,0,0,.13574,1.53565,1.21342,1.21342,0,0,0,.53125.53711,2.14745,2.14745,0,0,0,1.08106.23047h.53125v.437h-8.38575v-.437h.53125a2.21134,2.21134,0,0,0,1.12207-.248,1.12908,1.12908,0,0,0,.48438-.5669,4.85677,4.85677,0,0,0,.12988-1.48828V5.77036H120.6377a3.36516,3.36516,0,0,0-2.35059.68506,4.52364,4.52364,0,0,0-1.29883,2.728h-.44922V4.849Z" style="fill: #5f6060"/>
    <path d="M140.65625,16.30552H134.999l-.67285,1.55908a3.46509,3.46509,0,0,0-.33105,1.2876,1.06918,1.06918,0,0,0,.54394.99169,4.54566,4.54566,0,0,0,1.57032.2837v.437H130.7832v-.437a2.38168,2.38168,0,0,0,1.417-.71436,9.52123,9.52123,0,0,0,1.37011-2.41553l5.72852-12.77929h.22363l5.77637,13.13379a8.007,8.007,0,0,0,1.35742,2.35009,1.85512,1.85512,0,0,0,1.13477.4253v.437H140.043v-.437h.31836a2.42947,2.42947,0,0,0,1.31152-.25977.63186.63186,0,0,0,.25977-.54346,1.46221,1.46221,0,0,0-.07129-.437q-.02345-.1062-.35449-.88574Zm-.40137-.874-2.38574-5.51562-2.456,5.51562Z" style="fill: #5f6060"/>
    <path d="M158.82227,12.37241a8.18194,8.18194,0,0,1,3.20117,1.2876,3.42369,3.42369,0,0,1,1.32226,2.78711,3.691,3.691,0,0,1-1.45215,2.98828,8.13649,8.13649,0,0,1-5.18554,1.4292h-8.1377v-.437a3.67783,3.67783,0,0,0,1.50586-.20655,1.20767,1.20767,0,0,0,.55567-.53759,4.91885,4.91885,0,0,0,.15918-1.62989V7.66a4.97953,4.97953,0,0,0-.15918-1.63574,1.16822,1.16822,0,0,0-.56153-.5376,3.78074,3.78074,0,0,0-1.5-.20069V4.849h7.67676a10.90981,10.90981,0,0,1,3.89844.49024,4.05807,4.05807,0,0,1,1.80664,1.46435,3.62316,3.62316,0,0,1,.66113,2.07276,2.94584,2.94584,0,0,1-.83789,2.061A6.02588,6.02588,0,0,1,158.82227,12.37241Zm-4.29883.60254v5.13769l-.01172.59034a1.14349,1.14349,0,0,0,1.28711,1.28759,3.68191,3.68191,0,0,0,1.74219-.41943,2.87579,2.87579,0,0,0,1.22265-1.21631,3.72093,3.72093,0,0,0,.42481-1.77783,3.92414,3.92414,0,0,0-.51953-2.01367,2.8038,2.8038,0,0,0-1.42969-1.2461A7.75541,7.75541,0,0,0,154.52344,12.975Zm0-.92139a6.08719,6.08719,0,0,0,2.47363-.37793,2.81119,2.81119,0,0,0,1.22266-1.063,3.25982,3.25982,0,0,0,.42578-1.748,3.27469,3.27469,0,0,0-.41992-1.74219,2.65819,2.65819,0,0,0-1.19825-1.0332,6.3696,6.3696,0,0,0-2.5039-.34278Z" style="fill: #5f6060"/>
    <path d="M164.69238,4.849h8.33887v.437h-.27246a2.143,2.143,0,0,0-1.57617.43116,2.48136,2.48136,0,0,0-.39551,1.63574v4.7832a12.53725,12.53725,0,0,0,2.14941-.11181,1.67076,1.67076,0,0,0,.9209-.64991,5.99611,5.99611,0,0,0,.81543-2.07275,15.41275,15.41275,0,0,1,.8916-2.69287,3.56219,3.56219,0,0,1,1.19239-1.42334A3.28817,3.28817,0,0,1,178.665,4.66a2.54556,2.54556,0,0,1,1.81836.64355,2.09306,2.09306,0,0,1,.68555,1.58838,1.49621,1.49621,0,0,1-.46094,1.15772,1.624,1.624,0,0,1-1.14551.42529q-1.34619,0-1.45312-1.55908-.04687-.77929-.543-.77979a1.07931,1.07931,0,0,0-.90918.60254,9.09554,9.09554,0,0,0-.81543,2.16162,23.23614,23.23614,0,0,1-.73242,2.28516,3.46578,3.46578,0,0,1-.874,1.28174,3.25739,3.25739,0,0,1,1.16406.49609,3.29013,3.29013,0,0,1,.73829.79688q.32958.49071,1.417,2.48632l1.62988,2.90577a2.60867,2.60867,0,0,0,.90332.9624,2.44012,2.44012,0,0,0,1.26953.313v.437h-5.3623L172.7002,14.723a5.19117,5.19117,0,0,0-.833-1.25782,1.96268,1.96268,0,0,0-1.08008-.2539v5.4209q0,1.158.47852,1.47656a3.43053,3.43053,0,0,0,1.76562.31885v.437h-8.33887v-.437a2.99384,2.99384,0,0,0,1.8125-.40772,2.24157,2.24157,0,0,0,.43164-1.64746V7.66a3.56649,3.56649,0,0,0-.34277-1.88965q-.34278-.48413-1.55859-.48438h-.34278Z" style="fill: #5f6060"/>
    <path d="M191.79785,16.30552h-5.65722l-.67286,1.55908a3.46509,3.46509,0,0,0-.33105,1.2876,1.06918,1.06918,0,0,0,.54394.99169,4.54572,4.54572,0,0,0,1.57032.2837v.437H181.9248v-.437a2.38168,2.38168,0,0,0,1.417-.71436,9.52123,9.52123,0,0,0,1.37011-2.41553l5.72852-12.77929h.22363l5.77637,13.13379a8.00721,8.00721,0,0,0,1.35742,2.35009,1.85515,1.85515,0,0,0,1.13477.4253v.437h-7.748v-.437h.31836a2.42947,2.42947,0,0,0,1.31152-.25977.63186.63186,0,0,0,.25977-.54346,1.46221,1.46221,0,0,0-.07129-.437q-.02344-.1062-.35449-.88574Zm-.40137-.874-2.38574-5.51562-2.45605,5.51562Z" style="fill: #5f6060"/>
  </g>
  <g>
    <path d="M130.042,45.2352a3.91331,3.91331,0,0,1-1.52734-.27832,2.58927,2.58927,0,0,1-1.12695-.94726,4.90086,4.90086,0,0,1-.70215-1.80469,14.2731,14.2731,0,0,1-.23731-2.85059,14.26937,14.26937,0,0,1,.23731-2.84961,5.22172,5.22172,0,0,1,.67773-1.80468,2.47569,2.47569,0,0,1,1.07813-.94727,3.55438,3.55438,0,0,1,1.4375-.27832,9.68359,9.68359,0,0,1,1.40429.09863,5.96892,5.96892,0,0,1,1.04493.22852V34.536h-2.123a1.96608,1.96608,0,0,0-.90625.2129,1.8151,1.8151,0,0,0-.72656.75976,4.78513,4.78513,0,0,0-.48243,1.47754,13.47759,13.47759,0,0,0-.17089,2.36816,12.83787,12.83787,0,0,0,.17968,2.36914,4.73411,4.73411,0,0,0,.498,1.47754,1.79518,1.79518,0,0,0,.76758.75977,2.31627,2.31627,0,0,0,1.0039.21191h2.124v.73535a6.0031,6.0031,0,0,1-1.0459.22852A9.67371,9.67371,0,0,1,130.042,45.2352Z" style="fill: #a91f23"/>
    <path d="M143.45117,36.90513v8.166h-1.46972V37.96665H139.8584l-.26172,4.49121a3.71468,3.71468,0,0,1-.6123,2.12305,1.584,1.584,0,0,1-1.26563.65429,2.06434,2.06434,0,0,1-.62891-.082q-.25341-.082-.26953-.082v-.65332a1.09918,1.09918,0,0,0,.86524-.457,2.64382,2.64382,0,0,0,.4414-1.50293l.32715-5.55273Z" style="fill: #a91f23"/>
    <path d="M147.044,36.90513v3.42968h1.0625a4.68784,4.68784,0,0,1,.85742-2.752,2.60186,2.60186,0,0,1,2.082-.8418,3.53464,3.53464,0,0,1,1.28223.21289,2.03686,2.03686,0,0,1,.915.71,3.53476,3.53476,0,0,1,.55469,1.31543,10.79892,10.79892,0,0,1,0,4.01758,3.52769,3.52769,0,0,1-.55469,1.31543,2.03686,2.03686,0,0,1-.915.71,3.53464,3.53464,0,0,1-1.28223.21289,2.59161,2.59161,0,0,1-2.09082-.86621,4.92191,4.92191,0,0,1-.84863-2.89062H147.044v3.59277h-1.46973v-8.166Zm4.00195,7.43164a1.14273,1.14273,0,0,0,.58008-.15528,1.25549,1.25549,0,0,0,.46582-.53906,3.76055,3.76055,0,0,0,.30957-1.0293,11.61246,11.61246,0,0,0,0-3.25,3.76058,3.76058,0,0,0-.30957-1.02929,1.25558,1.25558,0,0,0-.46582-.53907,1.16121,1.16121,0,0,0-1.16016,0,1.254,1.254,0,0,0-.46484.53907,3.724,3.724,0,0,0-.31055,1.02929,11.61246,11.61246,0,0,0,0,3.25,3.724,3.724,0,0,0,.31055,1.0293,1.25393,1.25393,0,0,0,.46484.53906A1.14273,1.14273,0,0,0,151.0459,44.33677Z" style="fill: #a91f23"/>
    <path d="M157.08984,37.6395a5.17194,5.17194,0,0,1,.76758-.29395,3.42124,3.42124,0,0,1,.94727-.11425,3.49268,3.49268,0,0,1,1.24121.2041,2.02229,2.02229,0,0,1,.89844.66992,3.20088,3.20088,0,0,1,.53906,1.2334,8.444,8.444,0,0,1,.17969,1.89453,8.129,8.129,0,0,1-.1875,1.89453,3.12778,3.12778,0,0,1-.56348,1.2334,2.111,2.111,0,0,1-.93945.669,4.4223,4.4223,0,0,1-2.66211,0,2.111,2.111,0,0,1-.93946-.669,3.12778,3.12778,0,0,1-.56347-1.2334,8.129,8.129,0,0,1-.1875-1.89453V38.53794a10.85855,10.85855,0,0,1,.21191-2.34375,3.50377,3.50377,0,0,1,.69434-1.51074,2.69987,2.69987,0,0,1,1.26562-.8252,7.34534,7.34534,0,0,1,1.91114-.30176l1.79687-.082.082.65332q-.4248.18018-.93164.34375a5.69848,5.69848,0,0,1-1.19238.22852,3.87293,3.87293,0,0,0-1.06153.24511,1.87775,1.87775,0,0,0-.73437.52247,2.15593,2.15593,0,0,0-.43359.874A5.19021,5.19021,0,0,0,157.08984,37.6395Zm0,3.59375a8.38413,8.38413,0,0,0,.11426,1.51855,2.91033,2.91033,0,0,0,.32715.95606,1.22994,1.22994,0,0,0,.49023.48926,1.44883,1.44883,0,0,0,1.24122,0,1.23414,1.23414,0,0,0,.48925-.48926,2.91033,2.91033,0,0,0,.32715-.95606,8.38413,8.38413,0,0,0,.11426-1.51855,7.42242,7.42242,0,0,0-.12207-1.46973,2.57409,2.57409,0,0,0-.35938-.93164,1.28586,1.28586,0,0,0-.58886-.48144,2.17656,2.17656,0,0,0-.80762-.13867,2.51144,2.51144,0,0,0-.71094.09765,1.70394,1.70394,0,0,0-.51465.22852Z" style="fill: #a91f23"/>
    <path d="M169.25781,40.98813a8.742,8.742,0,0,1-.19629,2.00879,3.45813,3.45813,0,0,1-.5791,1.31543,2.13119,2.13119,0,0,1-.94824.71,4.0655,4.0655,0,0,1-2.59668,0,2.12326,2.12326,0,0,1-.94727-.71,3.45868,3.45868,0,0,1-.58007-1.31543,10.42747,10.42747,0,0,1,0-4.01758,3.46561,3.46561,0,0,1,.58007-1.31543,2.12326,2.12326,0,0,1,.94727-.71,4.0655,4.0655,0,0,1,2.59668,0,2.13119,2.13119,0,0,1,.94824.71,3.46505,3.46505,0,0,1,.5791,1.31543A8.7421,8.7421,0,0,1,169.25781,40.98813Zm-1.46972,0a8.40757,8.40757,0,0,0-.13086-1.625,3.67566,3.67566,0,0,0-.34278-1.02929,1.33365,1.33365,0,0,0-.49023-.53907,1.19058,1.19058,0,0,0-1.17578,0,1.32693,1.32693,0,0,0-.49024.53907,3.64429,3.64429,0,0,0-.34277,1.02929,10.15493,10.15493,0,0,0,0,3.25,3.64426,3.64426,0,0,0,.34277,1.0293,1.32683,1.32683,0,0,0,.49024.53906,1.19052,1.19052,0,0,0,1.17578,0,1.33355,1.33355,0,0,0,.49023-.53906,3.67563,3.67563,0,0,0,.34278-1.0293A8.4075,8.4075,0,0,0,167.78809,40.98813Z" style="fill: #a91f23"/>
    <path d="M171.05371,37.06821a7.7276,7.7276,0,0,1,1.22559-.25293,9.96042,9.96042,0,0,1,1.22461-.07422,6.51266,6.51266,0,0,1,1.24121.10645,2.25655,2.25655,0,0,1,.89843.36719,1.59175,1.59175,0,0,1,.53907.70312,2.97524,2.97524,0,0,1,.17968,1.11035,2.12191,2.12191,0,0,1-.09765.67774,1.51085,1.51085,0,0,1-.26172.48144,1.46754,1.46754,0,0,1-.36719.31934,2.78688,2.78688,0,0,1-.417.2041v.06445a2.54977,2.54977,0,0,1,.53906.22949,1.78684,1.78684,0,0,1,.47364.39161,1.82752,1.82752,0,0,1,.335.58789,2.37208,2.37208,0,0,1,.12207.80078,3.31653,3.31653,0,0,1-.1875,1.208,1.68141,1.68141,0,0,1-.56348.752,2.27859,2.27859,0,0,1-.93945.38379,7.31487,7.31487,0,0,1-1.33106.10644,11.79851,11.79851,0,0,1-1.36328-.07422,7.64423,7.64423,0,0,1-1.25-.25293Zm1.46973.65332v2.61328h.98047a1.64335,1.64335,0,0,0,1.00488-.28613,1.54868,1.54868,0,0,0,0-2.041,1.64335,1.64335,0,0,0-1.00488-.28613Zm1.14355,6.5332a1.89329,1.89329,0,0,0,1.14356-.30175,1.875,1.875,0,0,0,0-2.33594,1.89321,1.89321,0,0,0-1.14356-.30274h-1.14355v2.94043Z" style="fill: #a91f23"/>
    <path d="M179.874,40.0897c.251-.043.50391-.082.75977-.11426a6.86122,6.86122,0,0,1,.874-.04883,4.43755,4.43755,0,0,1,1.05371.11426,1.79986,1.79986,0,0,1,.792.4082,1.904,1.904,0,0,1,.50586.81641,4.24658,4.24658,0,0,1,.17968,1.35547,3.81754,3.81754,0,0,1-.1875,1.30664,1.77212,1.77212,0,0,1-.56347.80078,2.14562,2.14562,0,0,1-.93946.40039,7.31476,7.31476,0,0,1-1.33105.10644,11.79826,11.79826,0,0,1-1.36328-.07422,7.64423,7.64423,0,0,1-1.25-.25293V36.90513H179.874Zm1.14356,4.165a1.78132,1.78132,0,0,0,1.14355-.32714,1.62469,1.62469,0,0,0,.40821-1.30664,1.62745,1.62745,0,0,0-.40821-1.30665,1.79292,1.79292,0,0,0-1.14355-.32617H179.874v3.2666Z" style="fill: #a91f23"/>
    <path d="M187.22363,36.90513v3.42968h1.0625a4.68792,4.68792,0,0,1,.85742-2.752,2.6019,2.6019,0,0,1,2.082-.8418,3.53455,3.53455,0,0,1,1.28222.21289,2.03689,2.03689,0,0,1,.915.71,3.53476,3.53476,0,0,1,.55469,1.31543,10.79892,10.79892,0,0,1,0,4.01758,3.52769,3.52769,0,0,1-.55469,1.31543,2.03689,2.03689,0,0,1-.915.71,3.53455,3.53455,0,0,1-1.28222.21289,2.59161,2.59161,0,0,1-2.09082-.86621,4.922,4.922,0,0,1-.84864-2.89062h-1.0625v3.59277h-1.46972v-8.166Zm4.002,7.43164a1.14267,1.14267,0,0,0,.58007-.15528,1.25536,1.25536,0,0,0,.46582-.53906,3.7602,3.7602,0,0,0,.30957-1.0293,11.61246,11.61246,0,0,0,0-3.25,3.76023,3.76023,0,0,0-.30957-1.02929,1.25545,1.25545,0,0,0-.46582-.53907,1.16119,1.16119,0,0,0-1.16015,0,1.254,1.254,0,0,0-.46485.53907,3.724,3.724,0,0,0-.31054,1.02929,11.61246,11.61246,0,0,0,0,3.25,3.724,3.724,0,0,0,.31054,1.0293,1.25395,1.25395,0,0,0,.46485.53906A1.14271,1.14271,0,0,0,191.22559,44.33677Z" style="fill: #a91f23"/>
    <path d="M196.09375,42.04966l-.21191-8.41114h1.79589l-.27734,8.41114Zm1.38867,1.30664v1.79687h-1.4707V43.3563Z" style="fill: #a91f23"/>
  </g>
  <rect x="212.24414" width="0.74689" height="51.03978" style="fill: #5f6060"/>
  <g>
    <path d="M265.03142,17.60618a1.28034,1.28034,0,0,0,1.4158,1.11375,2.43631,2.43631,0,0,0,2.0246-1.26459,6.52973,6.52973,0,0,0,1.25534-3.88554A10.22222,10.22222,0,0,0,268.455,8.9594a7.39765,7.39765,0,0,0-4.15233-3.2238,13.6224,13.6224,0,0,0-1.46994-.44439c1.5734,1.03274,4.04969,3.195,4.06569,6.61131a9.479,9.479,0,0,1-1.64884,5.02666A1.26813,1.26813,0,0,0,265.03142,17.60618Z" style="fill: #762515;fill-rule: evenodd"/>
    <path d="M238.48873,27.102a12.70339,12.70339,0,0,1,1.4483-6.51866l.543-.84508c4.61922-8.11813,14.257-16.483,21.35887-15.38518l.01162-.04375c.018.01563,5.46944.53584,7.39463,4.1864a10.68942,10.68942,0,0,1,1.32711,4.83257,7.132,7.132,0,0,1-.22217,1.76873c1.32154-2.80472,2.903-9.08554-6.25475-13.60243-15.98883-5.818-30.1913,18.82925-30.1913,18.82925s-7.61858,8.682,12.43654,19.01092a42.91166,42.91166,0,0,1-4.04968-2.93869A12.44689,12.44689,0,0,1,238.48873,27.102Z" style="fill: #a91f23;fill-rule: evenodd"/>
    <path d="M273.04928,35.80251a8.294,8.294,0,0,0,1.55939-4.42106c.00162-2.37515-1.67328-3.90366-3.41033-4.86258a12.22493,12.22493,0,0,0-1.27784-.60647,6.76384,6.76384,0,0,1,3.21785,5.364c0,1.64278-.728,3.57154-2.6415,5.78186a10.96273,10.96273,0,0,1-8.74661,4.21328C251.6981,41.22906,240.2294,29.43268,240.18446,21.412c0-.04813.00043-.09583.00162-.14353a13.43162,13.43162,0,0,0-1.03274,5.23439,13.52617,13.52617,0,0,0,3.76846,9.57849c1.23365,1.20683,8.99609,7.612,17.1259,7.59954C264.5714,43.67441,269.21625,41.73845,273.04928,35.80251Z" style="fill: #762515;fill-rule: evenodd"/>
    <path d="M271.18552,21.44245c-4.09181-1.49925-10.08221-1.421-12.79072,2.80954-1.00629,1.5722,4.845-.306,9.77784.55428l.01563-.05376a14.76151,14.76151,0,0,1,1.69735.49134q.12451.04388.24666.09064c2.13931.80457,5.28334,2.56849,5.32185,6.047a8.77458,8.77458,0,0,1-1.63635,4.683c-3.35744,5.2192-7.42432,7.46-11.47319,7.97535C277.45509,43.729,280.263,24.83715,271.18552,21.44245Z" style="fill: #a91f23;fill-rule: evenodd"/>
  </g>
</svg>
